<?xml version="1.0" encoding="utf-8"?>
<!-- Generator: Adobe Illustrator 25.1.0, SVG Export Plug-In . SVG Version: 6.00 Build 0)  -->
<!DOCTYPE svg PUBLIC "-//W3C//DTD SVG 1.1//EN" "http://www.w3.org/Graphics/SVG/1.1/DTD/svg11.dtd" [
	<!ENTITY ns_flows "http://ns.adobe.com/Flows/1.0/">
	<!ENTITY ns_extend "http://ns.adobe.com/Extensibility/1.0/">
	<!ENTITY ns_ai "http://ns.adobe.com/AdobeIllustrator/10.0/">
	<!ENTITY ns_graphs "http://ns.adobe.com/Graphs/1.0/">
	<!ENTITY ns_vars "http://ns.adobe.com/Variables/1.0/">
	<!ENTITY ns_imrep "http://ns.adobe.com/ImageReplacement/1.0/">
	<!ENTITY ns_sfw "http://ns.adobe.com/SaveForWeb/1.0/">
	<!ENTITY ns_custom "http://ns.adobe.com/GenericCustomNamespace/1.0/">
	<!ENTITY ns_adobe_xpath "http://ns.adobe.com/XPath/1.0/">
]>
<svg version="1.1" xmlns:x="&ns_extend;" xmlns:i="&ns_ai;" xmlns:graph="&ns_graphs;"
	 xmlns="http://www.w3.org/2000/svg" xmlns:xlink="http://www.w3.org/1999/xlink" xmlns:a="http://ns.adobe.com/AdobeSVGViewerExtensions/3.0/"
	 x="0px" y="0px" width="1000px" height="625px" viewBox="0 0 1000 625" enable-background="new 0 0 1000 625" xml:space="preserve"
	>
<metadata>
	<sfw  xmlns="&ns_sfw;">
		<slices></slices>
		<sliceSourceBounds  bottomLeftOrigin="true" height="6392.511" width="5434" x="-2000" y="-958"></sliceSourceBounds>
	</sfw>
</metadata>
<g id="FILL-BACKGROUND">
	<rect fill="#FFFFFF" width="1000" height="625"/>
</g>
<g id="N-DIMENSIONS">
</g>
<g id="N-TEXT">
	<g id="MTEXT_6_">
		<g>
			<g>
				<path fill="#E74C3C" d="M398.66,583.082h3.647v12.17c0,1.125-0.252,2.103-0.755,2.932c-0.502,0.83-1.2,1.469-2.092,1.917
					c-0.893,0.449-1.929,0.673-3.111,0.673c-1.051,0-2.004-0.187-2.859-0.559c-0.854-0.372-1.532-0.94-2.032-1.704
					s-0.747-1.726-0.741-2.885h3.673c0.012,0.46,0.106,0.854,0.286,1.181c0.179,0.327,0.426,0.577,0.741,0.75s0.688,0.26,1.12,0.26
					c0.455,0,0.84-0.098,1.155-0.294c0.315-0.196,0.556-0.484,0.72-0.865c0.165-0.38,0.248-0.849,0.248-1.406V583.082z"/>
				<path fill="#E74C3C" d="M409.015,600.783c-0.835,0-1.58-0.146-2.233-0.439s-1.169-0.727-1.547-1.304s-0.566-1.297-0.566-2.161
					c0-0.727,0.134-1.338,0.4-1.833c0.268-0.494,0.631-0.892,1.091-1.193c0.461-0.301,0.984-0.529,1.572-0.682
					c0.589-0.153,1.206-0.261,1.854-0.324c0.761-0.08,1.375-0.155,1.841-0.226c0.466-0.071,0.804-0.177,1.014-0.319
					s0.315-0.352,0.315-0.631v-0.051c0-0.54-0.169-0.958-0.507-1.253s-0.817-0.443-1.437-0.443c-0.653,0-1.173,0.144-1.56,0.431
					c-0.386,0.287-0.642,0.646-0.767,1.078l-3.358-0.273c0.171-0.795,0.506-1.484,1.006-2.067c0.5-0.582,1.146-1.031,1.939-1.347
					c0.792-0.315,1.711-0.473,2.757-0.473c0.728,0,1.425,0.085,2.092,0.255c0.668,0.17,1.262,0.435,1.781,0.793
					c0.521,0.358,0.931,0.817,1.231,1.376c0.302,0.56,0.452,1.229,0.452,2.007v8.83h-3.443v-1.815h-0.103
					c-0.21,0.409-0.491,0.769-0.844,1.078c-0.352,0.31-0.775,0.551-1.27,0.725S409.662,600.783,409.015,600.783z M410.055,598.278
					c0.533,0,1.005-0.107,1.414-0.32s0.73-0.501,0.964-0.865c0.232-0.363,0.349-0.775,0.349-1.236v-1.389
					c-0.113,0.074-0.269,0.141-0.464,0.201c-0.196,0.06-0.417,0.113-0.661,0.162s-0.488,0.091-0.732,0.128s-0.466,0.07-0.665,0.098
					c-0.426,0.062-0.798,0.162-1.116,0.298c-0.318,0.136-0.565,0.319-0.741,0.549c-0.177,0.23-0.265,0.516-0.265,0.857
					c0,0.494,0.181,0.871,0.541,1.129C409.039,598.148,409.497,598.278,410.055,598.278z"/>
				<path fill="#E74C3C" d="M422.838,592.968v7.568h-3.631v-13.091h3.461v2.31h0.153c0.289-0.761,0.775-1.365,1.457-1.811
					c0.682-0.446,1.509-0.669,2.48-0.669c0.909,0,1.701,0.199,2.378,0.597c0.676,0.397,1.201,0.964,1.576,1.7
					s0.562,1.612,0.562,2.629v8.335h-3.631v-7.688c0.006-0.801-0.198-1.428-0.613-1.879s-0.985-0.677-1.713-0.677
					c-0.489,0-0.919,0.105-1.291,0.315c-0.372,0.21-0.662,0.516-0.87,0.917C422.95,591.924,422.844,592.405,422.838,592.968z"/>
				<path fill="#E74C3C" d="M442.287,591.928v2.881h-7.96v-2.881H442.287z"/>
				<path fill="#E74C3C" d="M461.488,591.809c0,1.903-0.359,3.522-1.078,4.858c-0.719,1.335-1.695,2.354-2.932,3.055
					c-1.235,0.702-2.623,1.053-4.163,1.053c-1.551,0-2.943-0.353-4.176-1.057c-1.233-0.704-2.208-1.724-2.924-3.06
					c-0.716-1.335-1.073-2.952-1.073-4.849c0-1.904,0.357-3.523,1.073-4.858c0.716-1.335,1.69-2.354,2.924-3.055
					c1.232-0.702,2.625-1.053,4.176-1.053c1.54,0,2.928,0.351,4.163,1.053c1.236,0.702,2.213,1.72,2.932,3.055
					C461.129,588.286,461.488,589.905,461.488,591.809z M457.747,591.809c0-1.233-0.183-2.273-0.55-3.12
					c-0.366-0.847-0.882-1.488-1.547-1.926c-0.664-0.437-1.443-0.656-2.335-0.656c-0.893,0-1.671,0.219-2.335,0.656
					c-0.665,0.438-1.181,1.08-1.547,1.926c-0.367,0.847-0.55,1.887-0.55,3.12s0.183,2.272,0.55,3.119
					c0.366,0.847,0.882,1.489,1.547,1.926c0.664,0.438,1.442,0.656,2.335,0.656c0.892,0,1.671-0.219,2.335-0.656
					c0.665-0.438,1.181-1.08,1.547-1.926C457.564,594.082,457.747,593.042,457.747,591.809z"/>
				<path fill="#E74C3C" d="M476.352,587.445l-4.576,13.091h-4.091l-4.577-13.091h3.835l2.719,9.366h0.137l2.71-9.366H476.352z"/>
				<path fill="#E74C3C" d="M483.741,600.792c-1.346,0-2.504-0.274-3.473-0.823s-1.715-1.327-2.237-2.335
					c-0.522-1.009-0.784-2.203-0.784-3.584c0-1.347,0.262-2.528,0.784-3.545s1.26-1.81,2.212-2.378
					c0.951-0.568,2.069-0.852,3.354-0.852c0.863,0,1.669,0.138,2.416,0.413c0.747,0.276,1.4,0.689,1.961,1.24
					c0.56,0.551,0.995,1.243,1.308,2.075c0.312,0.833,0.469,1.806,0.469,2.919v0.997h-11.054v-2.25h7.637
					c0-0.522-0.114-0.985-0.342-1.389c-0.227-0.403-0.541-0.72-0.941-0.95s-0.865-0.345-1.394-0.345
					c-0.551,0-1.038,0.126-1.462,0.379c-0.423,0.253-0.754,0.591-0.992,1.014c-0.239,0.423-0.361,0.894-0.367,1.411v2.139
					c0,0.647,0.121,1.208,0.362,1.679c0.242,0.472,0.584,0.835,1.027,1.091c0.443,0.255,0.969,0.383,1.577,0.383
					c0.403,0,0.772-0.057,1.107-0.17s0.622-0.284,0.861-0.511c0.238-0.228,0.42-0.506,0.545-0.835l3.358,0.222
					c-0.171,0.807-0.519,1.51-1.044,2.109c-0.526,0.6-1.202,1.065-2.029,1.398C485.774,600.625,484.821,600.792,483.741,600.792z"/>
				<path fill="#E74C3C" d="M501.682,600.536l-4.994-17.455h4.031l2.89,12.128h0.145l3.188-12.128h3.452l3.179,12.153h0.153
					l2.89-12.153h4.031l-4.995,17.455h-3.596l-3.324-11.412h-0.137l-3.315,11.412H501.682z"/>
				<path fill="#E74C3C" d="M524.863,600.783c-0.835,0-1.579-0.146-2.232-0.439s-1.169-0.727-1.547-1.304s-0.566-1.297-0.566-2.161
					c0-0.727,0.133-1.338,0.4-1.833c0.267-0.494,0.631-0.892,1.091-1.193s0.984-0.529,1.572-0.682s1.206-0.261,1.854-0.324
					c0.762-0.08,1.375-0.155,1.841-0.226c0.466-0.071,0.804-0.177,1.015-0.319c0.21-0.142,0.315-0.352,0.315-0.631v-0.051
					c0-0.54-0.169-0.958-0.508-1.253c-0.338-0.295-0.816-0.443-1.436-0.443c-0.653,0-1.174,0.144-1.56,0.431
					c-0.387,0.287-0.643,0.646-0.768,1.078l-3.357-0.273c0.17-0.795,0.506-1.484,1.006-2.067c0.5-0.582,1.146-1.031,1.938-1.347
					c0.793-0.315,1.712-0.473,2.757-0.473c0.728,0,1.425,0.085,2.093,0.255c0.667,0.17,1.262,0.435,1.781,0.793
					s0.931,0.817,1.231,1.376s0.452,1.229,0.452,2.007v8.83h-3.443v-1.815h-0.103c-0.21,0.409-0.491,0.769-0.844,1.078
					c-0.353,0.31-0.775,0.551-1.27,0.725C526.082,600.697,525.512,600.783,524.863,600.783z M525.903,598.278
					c0.534,0,1.006-0.107,1.415-0.32s0.729-0.501,0.963-0.865c0.233-0.363,0.35-0.775,0.35-1.236v-1.389
					c-0.114,0.074-0.269,0.141-0.465,0.201c-0.195,0.06-0.416,0.113-0.66,0.162s-0.489,0.091-0.733,0.128s-0.466,0.07-0.664,0.098
					c-0.427,0.062-0.799,0.162-1.117,0.298c-0.318,0.136-0.565,0.319-0.741,0.549c-0.176,0.23-0.264,0.516-0.264,0.857
					c0,0.494,0.18,0.871,0.541,1.129C524.888,598.148,525.347,598.278,525.903,598.278z"/>
				<path fill="#E74C3C" d="M538.688,583.082v17.455h-3.631v-17.455H538.688z"/>
				<path fill="#E74C3C" d="M546.408,600.749c-0.994,0-1.894-0.257-2.697-0.771c-0.805-0.514-1.44-1.273-1.909-2.276
					c-0.469-1.002-0.703-2.234-0.703-3.694c0-1.5,0.241-2.749,0.725-3.746c0.482-0.998,1.126-1.745,1.93-2.242
					c0.805-0.497,1.687-0.746,2.646-0.746c0.733,0,1.346,0.124,1.837,0.371s0.89,0.554,1.193,0.92
					c0.304,0.367,0.535,0.726,0.694,1.078h0.111v-6.562h3.622v17.455h-3.58v-2.097h-0.153c-0.17,0.364-0.41,0.723-0.72,1.078
					c-0.311,0.355-0.711,0.649-1.202,0.882S547.112,600.749,546.408,600.749z M547.559,597.86c0.585,0,1.081-0.16,1.487-0.481
					c0.406-0.321,0.719-0.771,0.938-1.351c0.219-0.58,0.328-1.259,0.328-2.037s-0.107-1.455-0.324-2.028
					c-0.216-0.574-0.528-1.017-0.938-1.33c-0.408-0.312-0.906-0.469-1.491-0.469c-0.597,0-1.1,0.162-1.509,0.486
					c-0.408,0.324-0.719,0.772-0.929,1.347c-0.21,0.574-0.315,1.238-0.315,1.994c0,0.761,0.106,1.433,0.32,2.016
					c0.213,0.583,0.522,1.037,0.929,1.364S546.962,597.86,547.559,597.86z"/>
				<path fill="#E74C3C" d="M560.462,592.968v7.568h-3.631v-13.091h3.461v2.31h0.153c0.289-0.761,0.775-1.365,1.457-1.811
					c0.682-0.446,1.509-0.669,2.48-0.669c0.909,0,1.701,0.199,2.378,0.597c0.676,0.397,1.201,0.964,1.576,1.7
					s0.562,1.612,0.562,2.629v8.335h-3.631v-7.688c0.006-0.801-0.198-1.428-0.613-1.879s-0.985-0.677-1.713-0.677
					c-0.489,0-0.919,0.105-1.291,0.315c-0.372,0.21-0.662,0.516-0.87,0.917C560.574,591.924,560.468,592.405,560.462,592.968z"/>
				<path fill="#E74C3C" d="M577.72,600.792c-1.346,0-2.504-0.274-3.473-0.823s-1.715-1.327-2.237-2.335
					c-0.522-1.009-0.784-2.203-0.784-3.584c0-1.347,0.262-2.528,0.784-3.545s1.26-1.81,2.212-2.378
					c0.951-0.568,2.069-0.852,3.354-0.852c0.863,0,1.669,0.138,2.416,0.413c0.747,0.276,1.4,0.689,1.961,1.24
					c0.56,0.551,0.995,1.243,1.308,2.075c0.312,0.833,0.469,1.806,0.469,2.919v0.997h-11.054v-2.25h7.637
					c0-0.522-0.114-0.985-0.342-1.389c-0.227-0.403-0.541-0.72-0.941-0.95s-0.865-0.345-1.394-0.345
					c-0.551,0-1.038,0.126-1.462,0.379c-0.423,0.253-0.754,0.591-0.992,1.014c-0.239,0.423-0.361,0.894-0.367,1.411v2.139
					c0,0.647,0.121,1.208,0.362,1.679c0.242,0.472,0.584,0.835,1.027,1.091c0.443,0.255,0.969,0.383,1.577,0.383
					c0.403,0,0.772-0.057,1.107-0.17s0.622-0.284,0.861-0.511c0.238-0.228,0.42-0.506,0.545-0.835l3.358,0.222
					c-0.171,0.807-0.519,1.51-1.044,2.109c-0.526,0.6-1.202,1.065-2.029,1.398C579.753,600.625,578.8,600.792,577.72,600.792z"/>
				<path fill="#E74C3C" d="M586.098,600.536v-13.091h3.521v2.284h0.136c0.239-0.812,0.64-1.428,1.202-1.845
					c0.562-0.418,1.21-0.626,1.943-0.626c0.182,0,0.378,0.011,0.588,0.034c0.21,0.022,0.395,0.054,0.554,0.094v3.221
					c-0.17-0.051-0.406-0.096-0.707-0.136c-0.302-0.04-0.577-0.06-0.827-0.06c-0.534,0-1.01,0.115-1.428,0.345
					c-0.417,0.23-0.747,0.55-0.988,0.959c-0.241,0.409-0.362,0.88-0.362,1.415v7.406H586.098z"/>
			</g>
		</g>
	</g>
	<g id="MTEXT_5_">
		<g>
			<g>
				<path fill="#E74C3C" d="M773.166,582.631l3.521,5.949h0.136l3.537-5.949h4.168l-5.327,8.728l5.446,8.727h-4.244l-3.58-5.958
					h-0.136l-3.58,5.958h-4.227l5.463-8.727l-5.361-8.728H773.166z"/>
				<path fill="#E74C3C" d="M795.181,594.512v-7.517h3.631v13.091h-3.486v-2.378h-0.137c-0.295,0.767-0.785,1.384-1.47,1.85
					s-1.519,0.699-2.501,0.699c-0.875,0-1.646-0.199-2.311-0.597c-0.664-0.397-1.183-0.963-1.555-1.696s-0.562-1.611-0.567-2.634
					v-8.335h3.631v7.688c0.006,0.772,0.213,1.383,0.622,1.833c0.409,0.449,0.958,0.673,1.646,0.673c0.438,0,0.847-0.101,1.227-0.302
					c0.381-0.202,0.689-0.501,0.925-0.899C795.071,595.589,795.186,595.097,795.181,594.512z"/>
				<path fill="#E74C3C" d="M810.802,582.631l3.521,5.949h0.136l3.537-5.949h4.168l-5.327,8.728l5.446,8.727h-4.244l-3.58-5.958
					h-0.136l-3.58,5.958h-4.227l5.463-8.727l-5.361-8.728H810.802z"/>
				<path fill="#E74C3C" d="M826.254,585.308c-0.54,0-1.003-0.179-1.39-0.537s-0.579-0.79-0.579-1.295
					c0-0.505,0.192-0.939,0.579-1.3s0.847-0.541,1.381-0.541c0.546,0,1.01,0.179,1.394,0.537c0.384,0.358,0.575,0.79,0.575,1.295
					c0,0.505-0.191,0.939-0.575,1.299C827.255,585.127,826.793,585.308,826.254,585.308z M824.421,600.086v-13.091h3.631v13.091
					H824.421z"/>
				<path fill="#E74C3C" d="M834.58,592.518v7.568h-3.631v-13.091h3.461v2.31h0.153c0.289-0.761,0.775-1.365,1.457-1.811
					c0.682-0.446,1.509-0.669,2.48-0.669c0.909,0,1.701,0.199,2.378,0.597c0.676,0.397,1.201,0.964,1.576,1.7
					s0.562,1.612,0.562,2.629v8.335h-3.631v-7.688c0.006-0.801-0.198-1.428-0.613-1.879s-0.985-0.677-1.713-0.677
					c-0.489,0-0.919,0.105-1.291,0.315c-0.372,0.21-0.662,0.516-0.87,0.917C834.692,591.474,834.586,591.955,834.58,592.518z"/>
			</g>
		</g>
	</g>
	<g id="MTEXT_1_">
		<g>
			<g>
				<path fill="#E74C3C" d="M149.868,583.082h4.551l4.807,11.728h0.205l4.807-11.728h4.551v17.455h-3.579v-11.361h-0.146
					l-4.517,11.275h-2.438l-4.517-11.318h-0.146v11.403h-3.579V583.082z"/>
				<path fill="#E74C3C" d="M175.487,600.783c-0.835,0-1.58-0.146-2.233-0.439s-1.169-0.727-1.547-1.304s-0.566-1.297-0.566-2.161
					c0-0.727,0.134-1.338,0.4-1.833c0.268-0.494,0.631-0.892,1.091-1.193c0.461-0.301,0.984-0.529,1.572-0.682
					c0.589-0.153,1.206-0.261,1.854-0.324c0.761-0.08,1.375-0.155,1.841-0.226c0.466-0.071,0.804-0.177,1.014-0.319
					s0.315-0.352,0.315-0.631v-0.051c0-0.54-0.169-0.958-0.507-1.253s-0.817-0.443-1.437-0.443c-0.653,0-1.173,0.144-1.56,0.431
					c-0.386,0.287-0.642,0.646-0.767,1.078l-3.358-0.273c0.171-0.795,0.506-1.484,1.006-2.067c0.5-0.582,1.146-1.031,1.939-1.347
					c0.792-0.315,1.711-0.473,2.757-0.473c0.728,0,1.425,0.085,2.092,0.255c0.668,0.17,1.262,0.435,1.781,0.793
					c0.521,0.358,0.931,0.817,1.231,1.376c0.302,0.56,0.452,1.229,0.452,2.007v8.83h-3.443v-1.815h-0.103
					c-0.21,0.409-0.491,0.769-0.844,1.078c-0.352,0.31-0.775,0.551-1.27,0.725S176.135,600.783,175.487,600.783z M176.527,598.278
					c0.533,0,1.005-0.107,1.414-0.32s0.73-0.501,0.964-0.865c0.232-0.363,0.349-0.775,0.349-1.236v-1.389
					c-0.113,0.074-0.269,0.141-0.464,0.201c-0.196,0.06-0.417,0.113-0.661,0.162s-0.488,0.091-0.732,0.128s-0.466,0.07-0.665,0.098
					c-0.426,0.062-0.798,0.162-1.116,0.298c-0.318,0.136-0.565,0.319-0.741,0.549c-0.177,0.23-0.265,0.516-0.265,0.857
					c0,0.494,0.181,0.871,0.541,1.129C175.512,598.148,175.97,598.278,176.527,598.278z"/>
				<path fill="#E74C3C" d="M191.313,600.536v-17.455h3.69v14.412h7.483v3.042H191.313z"/>
				<path fill="#E74C3C" d="M210.779,600.792c-1.324,0-2.468-0.283-3.431-0.848s-1.706-1.355-2.229-2.369
					c-0.523-1.015-0.784-2.192-0.784-3.533c0-1.353,0.261-2.536,0.784-3.55c0.522-1.014,1.266-1.804,2.229-2.37
					c0.963-0.565,2.106-0.848,3.431-0.848c1.323,0,2.467,0.283,3.43,0.848c0.964,0.565,1.706,1.355,2.229,2.37
					c0.522,1.014,0.783,2.197,0.783,3.55c0,1.341-0.261,2.518-0.783,3.533c-0.523,1.014-1.266,1.804-2.229,2.369
					C213.246,600.509,212.103,600.792,210.779,600.792z M210.796,597.979c0.603,0,1.105-0.172,1.509-0.516s0.709-0.814,0.916-1.411
					s0.312-1.275,0.312-2.037c0-0.761-0.104-1.44-0.312-2.037c-0.207-0.597-0.513-1.068-0.916-1.415
					c-0.403-0.346-0.906-0.52-1.509-0.52c-0.608,0-1.118,0.174-1.529,0.52c-0.412,0.347-0.722,0.818-0.93,1.415
					c-0.207,0.596-0.311,1.275-0.311,2.037c0,0.762,0.104,1.44,0.311,2.037c0.208,0.597,0.518,1.067,0.93,1.411
					C209.678,597.808,210.188,597.979,210.796,597.979z"/>
				<path fill="#E74C3C" d="M223.222,592.968v7.568h-3.631v-13.091h3.461v2.31h0.153c0.289-0.761,0.775-1.365,1.457-1.811
					c0.682-0.446,1.509-0.669,2.48-0.669c0.909,0,1.701,0.199,2.378,0.597c0.676,0.397,1.201,0.964,1.576,1.7
					s0.562,1.612,0.562,2.629v8.335h-3.631v-7.688c0.006-0.801-0.198-1.428-0.613-1.879s-0.985-0.677-1.713-0.677
					c-0.489,0-0.919,0.105-1.291,0.315c-0.372,0.21-0.662,0.516-0.87,0.917C223.334,591.924,223.228,592.405,223.222,592.968z"/>
				<path fill="#E74C3C" d="M240.412,605.718c-1.176,0-2.184-0.161-3.021-0.481s-1.504-0.757-1.998-1.308
					c-0.494-0.551-0.815-1.17-0.963-1.858l3.357-0.452c0.103,0.261,0.265,0.505,0.486,0.733c0.222,0.227,0.516,0.41,0.882,0.55
					c0.366,0.139,0.813,0.208,1.342,0.208c0.79,0,1.442-0.191,1.956-0.575c0.515-0.383,0.771-1.024,0.771-1.922v-2.395h-0.153
					c-0.159,0.364-0.397,0.708-0.716,1.031c-0.318,0.324-0.728,0.588-1.228,0.793s-1.097,0.307-1.789,0.307
					c-0.983,0-1.877-0.229-2.681-0.686c-0.805-0.458-1.443-1.159-1.918-2.105c-0.475-0.946-0.712-2.144-0.712-3.592
					c0-1.483,0.242-2.722,0.725-3.716c0.483-0.994,1.127-1.738,1.931-2.233c0.804-0.494,1.686-0.741,2.646-0.741
					c0.732,0,1.347,0.124,1.841,0.371s0.894,0.554,1.197,0.92c0.304,0.367,0.538,0.726,0.703,1.078h0.137v-2.199h3.604v13.219
					c0,1.113-0.272,2.045-0.817,2.795c-0.546,0.75-1.3,1.314-2.264,1.692C242.769,605.529,241.662,605.718,240.412,605.718z
					 M240.489,597.622c0.585,0,1.081-0.146,1.487-0.439c0.406-0.293,0.719-0.713,0.938-1.262c0.219-0.548,0.328-1.206,0.328-1.973
					s-0.108-1.433-0.324-1.999s-0.528-1.004-0.938-1.317s-0.906-0.469-1.491-0.469c-0.597,0-1.1,0.161-1.509,0.481
					c-0.409,0.321-0.719,0.766-0.929,1.334c-0.211,0.568-0.315,1.224-0.315,1.969c0,0.755,0.106,1.408,0.319,1.956
					c0.213,0.549,0.522,0.972,0.929,1.27S239.893,597.622,240.489,597.622z"/>
			</g>
		</g>
	</g>
</g>
<g id="_x32_D_x24_AG-DIAGRAM">
	<g id="POLYLINE_749_">
		<g>
			<g>
				
					<line fill="none" stroke="#E74C3C" stroke-width="2.75" stroke-linecap="round" stroke-linejoin="round" x1="65.558" y1="553.377" x2="67.058" y2="553.377"/>
				
					<line fill="none" stroke="#E74C3C" stroke-width="2.75" stroke-linecap="round" stroke-linejoin="round" stroke-dasharray="3.0137,6.0274" x1="73.086" y1="553.377" x2="947.054" y2="553.377"/>
				
					<line fill="none" stroke="#E74C3C" stroke-width="2.75" stroke-linecap="round" stroke-linejoin="round" x1="950.067" y1="553.377" x2="951.567" y2="553.377"/>
			</g>
		</g>
	</g>
</g>
<g id="_x32_D_x24_AG-GUIDES">
</g>
<g id="_x32_D_x24_AG-DETAILS-DIAGRAM">
	<g id="POLYLINE_65_">
		<g>
			<g>
				<path fill="none" stroke="#E74C3C" stroke-width="2.75" stroke-linecap="round" stroke-linejoin="round" d="M210.498,85.375
					c-0.42-0.272-0.942-0.394-1.437-0.316l-0.229-1.482"/>
				
					<path fill="none" stroke="#E74C3C" stroke-width="2.75" stroke-linecap="round" stroke-linejoin="round" stroke-dasharray="3.0368,5.0613" d="
					M207.981,78.591c-0.585-3.417-1.273-7.351-1.764-9.48c-0.463-1.993-0.971-4.028-1.792-5.906
					c-0.375-0.847-0.841-1.662-1.421-2.387c-0.607-0.764-1.346-1.425-2.119-2.017c-2.163-1.624-4.502-3.086-6.931-4.278
					c-2.125-1.034-4.391-1.855-6.744-2.157c-3.538-0.481-7.123,0.261-10.464,1.415c-2.942,1.019-5.803,2.356-8.491,3.925
					c-2.215,1.31-4.386,2.788-6.213,4.611c-1.522,1.518-2.767,3.356-3.388,5.427c-0.574,1.885-0.657,3.891-0.585,5.849
					c0.113,3.051,0.817,7.453,1.204,10.512c0.327,2.31,0.691,4.695,1.151,7.038"/>
				<path fill="none" stroke="#E74C3C" stroke-width="2.75" stroke-linecap="round" stroke-linejoin="round" d="M160.954,93.618
					c0.114,0.49,0.233,0.976,0.358,1.457c-0.233,0.032-0.415,0.184-0.516,0.393c-0.121,0.25-0.16,0.528-0.17,0.804"/>
				
					<path fill="none" stroke="#E74C3C" stroke-width="2.75" stroke-linecap="round" stroke-linejoin="round" stroke-dasharray="2.918,4.8633" d="
					M161.988,100.892c0.339,0.646,0.705,1.292,1.002,1.867c0.54,1.03,0.988,2.123,1.261,3.256c0.225,0.883,0.478,2.276,0.736,3.146
					c0.068,0.223,0.146,0.451,0.247,0.661c0.086,0.174,0.19,0.348,0.347,0.467l0.009,0.007l0.009,0.006l0.009,0.006l0.009,0.006
					l0.009,0.006l0.01,0.006l0.009,0.005l0.01,0.005l0.01,0.005l0.01,0.005l0.01,0.005l0.01,0.004l0.01,0.004l0.01,0.004
					c0.194,0.072,0.406,0.017,0.596-0.043c0.463-0.15,0.956-0.425,1.451-0.264l0.017,0.006l0.017,0.006l0.017,0.007l0.017,0.007
					c0.454,0.201,0.77,0.648,1.038,1.049c0.265,0.41,0.504,0.867,0.721,1.304c0.822,1.692,1.742,3.949,2.687,5.565
					c-0.095,2.323-0.05,4.697,0.083,7.053"/>
				<path fill="none" stroke="#E74C3C" stroke-width="2.75" stroke-linecap="round" stroke-linejoin="round" d="M172.525,127.479
					c0.04,0.5,0.083,0.999,0.129,1.494c-0.344,0.36-0.692,0.719-1.042,1.075"/>
				
					<path fill="none" stroke="#E74C3C" stroke-width="2.75" stroke-linecap="round" stroke-linejoin="round" stroke-dasharray="2.9654,4.9424" d="
					M167.996,133.418c-0.506,0.42-1.022,0.825-1.552,1.211c-3.36,2.445-7.252,4.313-11,6.093c-5.22,2.469-12.746,5.537-17.423,8.798
					c-2.588,1.773-4.951,3.919-6.825,6.443c-3.326,4.505-5.292,9.874-6.85,15.208c-1.834,6.371-3.129,13.531-4.305,20.073
					c-1.661,9.595-2.958,19.58-3.58,29.292c-1.384,18.714,0.492,43.997,0.667,62.851c0.035,4.507-0.024,14.699,0.151,19.174
					l0.034,0.698l0.042,0.677c0.034,0.453,0.077,0.979,0.134,1.445"/>
				<path fill="none" stroke="#E74C3C" stroke-width="2.75" stroke-linecap="round" stroke-linejoin="round" d="M117.995,307.798
					c0.031,0.088,0.065,0.176,0.1,0.263c0.156,0.374,0.359,0.74,0.666,1.01c-0.025,0.486-0.055,0.989-0.09,1.497"/>
				
					<path fill="none" stroke="#E74C3C" stroke-width="2.75" stroke-linecap="round" stroke-linejoin="round" stroke-dasharray="2.9769,4.9615" d="
					M118.127,315.496c-0.232,1.556-0.522,3.337-0.676,4.342c-0.358,2.533-0.627,5.15-0.154,7.685
					c0.393,2.103,1.283,4.092,2.242,5.992c0.935,1.808,2.435,4.612,3.214,6.448c0.69,1.568,1.872,4.476,2.662,5.949
					c0.468,0.886,0.99,1.764,1.655,2.518c0.427,0.487,0.934,0.904,1.491,1.234"/>
				<path fill="none" stroke="#E74C3C" stroke-width="2.75" stroke-linecap="round" stroke-linejoin="round" d="M130.863,350.578
					c0.489,0.132,0.982,0.244,1.457,0.357c0.001,0.499,0.004,0.999,0.009,1.5"/>
				
					<path fill="none" stroke="#E74C3C" stroke-width="2.75" stroke-linecap="round" stroke-linejoin="round" stroke-dasharray="2.9787,4.9645" d="
					M132.462,357.399c0.173,3.673,0.54,7.342,1.275,10.92c0.846,4.135,2.236,8.199,3.929,12.062c0.859,1.931,1.83,3.902,2.933,5.704
					c0.882,1.435,1.887,2.828,3.101,4.001c0.488,0.471,1.013,0.905,1.57,1.296"/>
				<path fill="none" stroke="#E74C3C" stroke-width="2.75" stroke-linecap="round" stroke-linejoin="round" d="M147.426,392.604
					c0.457,0.203,0.927,0.378,1.406,0.522c0.054,0.491,0.106,0.988,0.157,1.49"/>
				
					<path fill="none" stroke="#E74C3C" stroke-width="2.75" stroke-linecap="round" stroke-linejoin="round" stroke-dasharray="2.9173,4.8621" d="
					M149.431,399.458c1.12,13.523,1.647,29.943,3.164,42.31c1.084,9.19,3.022,18.519,5.359,27.472
					c1.88,7.239,5.005,16.911,5.781,24.275c0.563,4.857,0.453,11.446,0.532,16.382c0.043,1.898,0.124,3.92,0.352,5.803
					c0.223,2.071,0.841,4.897,1.26,6.955c0.141,0.705,0.322,1.934,0.53,2.606c0.163,0.551,0.413,1.09,0.815,1.507
					c0.17,0.176,0.359,0.329,0.562,0.464"/>
				<path fill="none" stroke="#E74C3C" stroke-width="2.75" stroke-linecap="round" stroke-linejoin="round" d="M170.058,528.07
					c0.494,0.086,0.996,0.122,1.496,0.11l-0.379,1.451"/>
				
					<path fill="none" stroke="#E74C3C" stroke-width="2.75" stroke-linecap="round" stroke-linejoin="round" stroke-dasharray="3.0102,5.017" d="
					M169.62,534.391c-0.258,0.483-0.576,0.935-0.979,1.306c-0.749,0.693-1.71,1.102-2.647,1.473
					c-1.867,0.731-4.237,1.313-6.088,2.077c-0.736,0.313-1.442,0.726-2.012,1.294c-0.781,0.767-1.282,1.769-1.656,2.785
					c-0.517,1.431-0.835,2.95-0.909,4.471c-0.063,1.372,0.118,2.897,1.132,3.914c0.672,0.684,1.596,1.048,2.515,1.261
					c1.593,0.359,3.31,0.365,4.938,0.397c3.012-0.089,30.752,0.231,32.94-0.203c0.874-0.125,1.77-0.306,2.537-0.76
					c0.558-0.329,1.004-0.83,1.292-1.408c0.417-0.832,0.577-1.769,0.698-2.683c0.375-3.151,0.405-6.378,0.038-9.532
					c-0.542-4.333-1.773-8.609-3.171-12.737c0.482-2.541,0.666-5.194,0.791-7.775c0.083-1.902,0.092-3.845-0.254-5.723
					c-0.157-0.874-0.418-1.738-0.744-2.564c-0.653-1.663-1.617-3.473-2.061-5.208c-0.552-2.088-0.401-4.291-0.197-6.418
					c0.489-4.127,1.18-9.56,1.264-13.667c0.446-11.088-0.896-31.972-1.344-43.278c-0.087-2.687-0.14-5.89-0.13-8.576
					c0.335-11.919,0.677-47.639,1.491-58.894c0.605-8.44,1.786-17.123,3.479-25.41c0.253-1.144,0.502-2.434,0.896-3.534
					c0.058-0.146,0.117-0.3,0.214-0.427l0.005-0.006l0.005-0.006l0.005-0.006l0.005-0.006l0.005-0.005l0.005-0.005l0.005-0.005
					l0.005-0.004l0.005-0.004l0.005-0.004l0.005-0.004l0.005-0.003l0.005-0.003l0.005-0.003l0.005-0.002l0.005-0.002l0.005-0.002
					l0.005-0.001l0.005-0.001l0.005-0.001l0.005-0.001l0.005,0l0.005,0l0.005,0l0.005,0l0.005,0.001l0.005,0.001l0.005,0.002
					l0.005,0.002l0.005,0.002l0.005,0.003l0.005,0.003l0.005,0.004l0.005,0.004l0.005,0.005l0.005,0.005l0.005,0.005l0.005,0.006
					l0.005,0.006l0.005,0.007l0.005,0.007l0.005,0.007l0.005,0.008l0.005,0.008l0.005,0.009l0.005,0.009l0.005,0.009l0.005,0.01
					c0.087,0.2,0.12,0.428,0.158,0.642c0.298,2.253,0.511,5.807,0.848,8.034c0.653,4.73,1.946,9.447,3.41,13.987
					c1.462,4.572,3.756,10.394,5.413,14.92c0.616,1.727,1.224,3.565,1.655,5.347c0.388,1.586,0.645,3.234,0.733,4.865
					c0.171,2.827-0.103,6.589-0.203,9.436c-0.144,4.645,0.103,9.574,0.406,14.217c1.086,14.67,3.531,38.983,3.454,53.418
					c0.027,5.864-0.627,13.172-1.094,19.062c-0.094,1.451-0.175,3.076-0.167,4.525c-0.01,1.516,0.228,5.046,0.311,6.603
					c0.075,1.667,0.077,3.383-0.118,5.041c-0.246,2.327-1.21,5.943-1.741,8.252c-0.283,1.28-0.555,2.605-0.608,3.916
					c-0.019,0.427-0.012,0.856,0.016,1.284"/>
				<path fill="none" stroke="#E74C3C" stroke-width="2.75" stroke-linecap="round" stroke-linejoin="round" d="M214.726,520.649
					l0.312,1.467c-0.252,0.231-0.457,0.512-0.642,0.798c-0.085,0.132-0.166,0.267-0.243,0.405"/>
				
					<path fill="none" stroke="#E74C3C" stroke-width="2.75" stroke-linecap="round" stroke-linejoin="round" stroke-dasharray="3.0414,5.0689" d="
					M212.293,528.031c-0.167,0.547-0.323,1.095-0.473,1.637c-0.681,2.523-1.234,5.201-1.656,7.78
					c-0.497,3.228-0.912,6.553-0.695,9.822c0.124,1.438,0.337,2.987,1.238,4.164c0.549,0.717,1.365,1.178,2.22,1.43
					c1.057,0.316,2.186,0.403,3.284,0.459c3.38,0.113,43.933,0.033,46.881,0.041c1.223-0.029,2.778-0.045,3.995-0.153
					c1.19-0.102,2.408-0.241,3.545-0.623c0.677-0.232,1.33-0.575,1.836-1.087c0.794-0.786,1.113-1.914,1.214-3
					c0.129-1.384,0.036-2.796-0.231-4.159c-0.323-1.589-0.904-3.189-2.013-4.402c-0.947-1.041-2.214-1.727-3.501-2.258
					c-3.601-1.426-7.927-2.218-11.56-3.549c-1.412-0.511-2.827-1.102-4.075-1.947c-0.806-0.543-1.547-1.195-2.188-1.926
					c-0.721-0.817-1.329-1.749-1.875-2.69c-0.204-0.36-0.412-0.731-0.623-1.107"/>
				<path fill="none" stroke="#E74C3C" stroke-width="2.75" stroke-linecap="round" stroke-linejoin="round" d="M246.355,524.267
					c-0.261-0.438-0.525-0.866-0.79-1.275c0.236-0.438,0.468-0.88,0.697-1.324"/>
				
					<path fill="none" stroke="#E74C3C" stroke-width="2.75" stroke-linecap="round" stroke-linejoin="round" stroke-dasharray="3.0245,5.0408" d="
					M248.356,517.083c0.265-0.675,0.51-1.355,0.731-2.042c0.708-2.159,1.164-4.419,1.428-6.675
					c0.549-4.635,0.555-10.594,0.849-15.27c0.337-5.358,0.884-10.94,1.869-16.217c0.851-4.243,2.016-9.552,2.339-13.831
					c0.619-6.759,0.445-19.942,0.539-26.867c0.032-3.22,0.441-8.688,0.661-11.955c0.186-3.015,0.196-6.472,0.159-9.503
					l-0.707-26.077c-0.17-9.696,0.548-26.413,0.776-37.74"/>
				<path fill="none" stroke="#E74C3C" stroke-width="2.75" stroke-linecap="round" stroke-linejoin="round" d="M257.042,348.385
					c0.007-0.515,0.013-1.016,0.017-1.499c0.496,0.048,0.996,0.083,1.496,0.1"/>
				
					<path fill="none" stroke="#E74C3C" stroke-width="2.75" stroke-linecap="round" stroke-linejoin="round" stroke-dasharray="3.2476,5.4127" d="
					M263.875,346.202c0.62-0.259,1.205-0.598,1.713-1.039c0.707-0.611,1.237-1.404,1.646-2.239c0.655-1.344,1.043-2.827,1.39-4.276
					c0.243-1.072,0.751-3.394,1.017-4.414c0.076-0.344,1.303-4.723,1.435-5.198c0.509-1.881,0.975-3.828,1.162-5.77
					c0.218-2.266,0.068-4.546-0.306-6.791"/>
				<path fill="none" stroke="#E74C3C" stroke-width="2.75" stroke-linecap="round" stroke-linejoin="round" d="M271.389,313.823
					c-0.116-0.486-0.241-0.97-0.372-1.451c0.494-0.054,0.997-0.161,1.451-0.368"/>
				
					<path fill="none" stroke="#E74C3C" stroke-width="2.75" stroke-linecap="round" stroke-linejoin="round" stroke-dasharray="2.9588,4.9314" d="
					M274.731,307.85c0.072-0.467,0.124-0.938,0.167-1.405c0.449-5.377-0.414-17.364-0.549-22.886
					c-0.111-3.646-0.119-8.919-0.082-12.582l1.06-42.687c0.041-12.463,0.023-25.304-2.869-37.485
					c-1.214-5.162-2.995-10.286-4.999-15.194c-1.749-4.073-7.068-17.632-9.065-21.32c-1.501-2.882-3.313-5.665-5.688-7.905
					c-2.748-2.594-6.153-4.391-9.61-5.852c-2.93-1.279-11.068-4.012-14.158-5.131c-4.99-1.865-10.244-3.997-15.038-6.309
					c-2.321-1.104-4.801-2.549-6.995-3.904l-0.669-2.572c-0.977-3.901-1.393-8.501-1.816-12.515c0.379-1.684,0.42-3.635,0.948-5.284
					c0.165-0.461,0.405-0.979,0.895-1.161c0.558-0.204,1.195-0.046,1.771-0.126c0.484-0.054,0.871-0.349,1.151-0.735
					c0.345-0.472,0.559-1.03,0.741-1.581c0.714-2.304,0.986-4.802,1.263-7.192c0.159-1.863,0.492-4.163,0.41-6.022
					c-0.009-0.163-0.022-0.327-0.041-0.49"/>
			</g>
		</g>
	</g>
	<g id="POLYLINE_64_">
		<g>
			<g>
				<path fill="none" stroke="#E74C3C" stroke-width="2.75" stroke-linecap="round" stroke-linejoin="round" d="M815.034,111.836
					c-0.332,0.376-0.714,0.707-1.14,0.971c0.358,0.222,0.802,0.497,1.279,0.789"/>
				
					<path fill="none" stroke="#E74C3C" stroke-width="2.75" stroke-linecap="round" stroke-linejoin="round" stroke-dasharray="3.0092,5.0153" d="
					M819.509,116.114c1.576,0.834,3.34,1.689,4.831,2.416c3.641,1.774,16.927,7.824,20.123,9.758
					c1.398,0.838,2.728,1.815,3.884,2.965c1.293,1.275,2.385,2.755,3.358,4.285c1.643,2.593,3.051,5.443,4.333,8.232
					c4.138,9.016,7.999,20.709,12.102,29.747c0.826,1.792,1.775,3.709,2.75,5.422c0.786,1.402,2.438,4.075,3.167,5.494
					c0.469,0.928,0.935,1.898,1.077,2.938c0.058,0.442,0.026,0.896-0.088,1.326c-0.114,0.444-0.312,0.864-0.528,1.266
					c-0.2,0.345-0.502,1.018-0.785,1.319c-0.217,0.251-0.483,0.458-0.758,0.642c-0.402,0.259-0.828,0.5-1.269,0.729"/>
				<path fill="none" stroke="#E74C3C" stroke-width="2.75" stroke-linecap="round" stroke-linejoin="round" d="M869.434,193.712
					c-0.467,0.203-0.929,0.402-1.375,0.601c0.156,0.446,0.309,0.925,0.458,1.425"/>
				
					<path fill="none" stroke="#E74C3C" stroke-width="2.75" stroke-linecap="round" stroke-linejoin="round" stroke-dasharray="2.9682,4.947" d="
					M869.755,200.529c0.208,0.896,0.402,1.76,0.578,2.542c0.396,1.689,0.957,3.361,1.726,4.917c1.095,2.206,2.296,4.581,3.014,6.93
					c1.152,3.619,1.816,7.402,2.186,11.178c0.707,7.022,0.055,15.336,0.026,22.404c-0.009,2.14,0.11,4.403,0.326,6.533
					c0.208,2.103,0.602,5.143,0.481,7.249c-0.083,1.925-0.231,4.188-0.117,6.087c0.259,4.791,1.205,10.305,1.303,15.1
					c0.056,2.589-0.175,5.22-0.97,7.696c-0.659,2.101-1.723,4.066-2.95,5.888c-1.458,2.153-3.149,4.18-5.01,5.997
					c-0.757,0.729-1.563,1.455-2.423,2.059c-0.511,0.354-1.065,0.673-1.674,0.818c-0.788,0.196-1.618,0.023-2.348-0.3
					c-1.492-0.659-2.727-1.936-3.24-3.494c-0.278-0.829-0.327-1.719-0.274-2.586c0.095-1.467,0.453-2.927,0.833-4.343
					c0.496-1.748,1.433-4.852,1.789-6.567c0.313-1.452,0.484-2.954,0.347-4.438c-0.16-2.064-0.922-4.271-1.534-6.249
					c-0.308-1.019-0.602-2.082-0.783-3.129c-0.223-1.261-0.326-2.571-0.329-3.853c0.017-2.694,0.394-5.465,1.584-7.909
					c0.7-1.428,1.853-2.858,2.472-4.327c0.318-0.742,0.523-1.535,0.598-2.339c0.117-1.26-0.045-2.537-0.269-3.776
					c-0.302-1.624-0.771-3.285-1.26-4.863c-1.817-5.858-5.22-13.759-6.861-19.663c-0.583-2.106-1.027-4.324-1.368-6.482
					c-0.285-1.789-0.645-4.672-1.113-6.425c-0.553-2.215-1.805-4.488-2.659-6.593c-0.368-0.915-0.672-1.867-0.936-2.834"/>
				<path fill="none" stroke="#E74C3C" stroke-width="2.75" stroke-linecap="round" stroke-linejoin="round" d="M850.314,203.353
					c-0.108-0.491-0.211-0.981-0.311-1.467c-0.511,0.049-1.007-0.01-1.483-0.146"/>
				
					<path fill="none" stroke="#E74C3C" stroke-width="2.75" stroke-linecap="round" stroke-linejoin="round" stroke-dasharray="2.1214,3.5357" d="
					M845.513,199.929c-0.974-0.85-1.877-1.801-2.647-2.846"/>
				<path fill="none" stroke="#E74C3C" stroke-width="2.75" stroke-linecap="round" stroke-linejoin="round" d="M841.904,195.6
					c-0.245-0.436-0.466-0.885-0.659-1.347c-0.168,0.47-0.322,0.947-0.458,1.428"/>
				
					<path fill="none" stroke="#E74C3C" stroke-width="2.75" stroke-linecap="round" stroke-linejoin="round" stroke-dasharray="2.8834,4.8056" d="
					M840.067,200.418c-0.026,0.664-0.032,1.334-0.029,1.978c0.048,2.495,0.118,5.889,0.039,8.358
					c-0.229,9.443-1.27,20.13-0.24,29.521c0.614,5.094,2.494,22.548,3.206,27.286c0.369,2.399,0.82,4.907,1.452,7.248
					c0.337,1.269,0.774,2.558,1.253,3.781c0.332,0.855,0.866,2.112,1.258,3.203"/>
				<path fill="none" stroke="#E74C3C" stroke-width="2.75" stroke-linecap="round" stroke-linejoin="round" d="M847.609,284.122
					c0.056,0.498,0.049,1.001-0.059,1.493c0.376,0.342,0.713,0.711,1.016,1.104"/>
				
					<path fill="none" stroke="#E74C3C" stroke-width="2.75" stroke-linecap="round" stroke-linejoin="round" stroke-dasharray="2.8421,4.7369" d="
					M850.64,290.952c0.162,0.504,0.309,1.012,0.448,1.518c2.314,9.161,2.775,19.863,4.655,29.125
					c0.509,2.723,1.483,5.622,2.375,8.244c0.36,1.121,0.674,2.297,0.624,3.358"/>
				<path fill="none" stroke="#E74C3C" stroke-width="2.75" stroke-linecap="round" stroke-linejoin="round" d="M857.857,335.337
					c-0.315,0.314-0.726,0.588-1.255,0.812c0.014,0.499,0.027,0.999,0.039,1.499"/>
				
					<path fill="none" stroke="#E74C3C" stroke-width="2.75" stroke-linecap="round" stroke-linejoin="round" stroke-dasharray="2.9272,4.8786" d="
					M856.736,342.527c0.133,9.567-0.055,19.328-0.878,28.744c-0.6,7.538-2.367,17.27-3.485,24.804
					c-0.674,4.648-1.115,9.495-1.165,14.192c-0.094,9.679,0.827,22.875,0.384,32.515c-0.583,14.854-2.12,30.253-4.158,45.078"/>
				<path fill="none" stroke="#E74C3C" stroke-width="2.75" stroke-linecap="round" stroke-linejoin="round" d="M847.096,490.275
					c-0.07,0.496-0.141,0.99-0.212,1.485c0.439,0.248,0.826,0.598,1.015,1.064"/>
				
					<path fill="none" stroke="#E74C3C" stroke-width="2.75" stroke-linecap="round" stroke-linejoin="round" stroke-dasharray="3.0002,5.0003" d="
					M847.677,497.787c-0.062,1.06-0.079,2.135-0.091,3.166c0.016,3.7,0.06,15.953,0.073,19.85c1.27,2.126,2.661,5.067,3.905,7.209
					c0.762,1.317,1.635,2.599,2.694,3.696c1.332,1.401,2.985,2.463,4.684,3.364l2.934,1.524c2.11,1.149,4.321,2.507,5.45,4.713
					c0.964,1.959,0.983,4.259,0.567,6.366c-0.225,1.082-0.577,2.154-1.122,3.119c-0.47,0.84-1.151,1.577-2.043,1.969
					c-1.061,0.476-2.254,0.544-3.401,0.591c-2.541,0.02-33.334,0.076-35.212-0.029c-0.758-0.044-1.538-0.118-2.275-0.307
					c-0.557-0.143-1.106-0.359-1.573-0.7c-0.425-0.306-0.769-0.72-1.011-1.183c-0.434-0.828-0.604-1.77-0.691-2.693
					c-0.147-1.687-0.007-3.419,0.169-5.099c0.564-4.796,1.532-9.688,2.745-14.361c-0.352-2.464-0.592-4.989-0.391-7.476
					c0.1-1.335,0.397-2.676,0.755-3.965c0.676-2.356,1.396-4.905,1.538-7.355c0.163-2.286,0.076-4.644-0.102-6.928
					c-0.204-2.548-0.567-5.175-1.08-7.699"/>
				<path fill="none" stroke="#E74C3C" stroke-width="2.75" stroke-linecap="round" stroke-linejoin="round" d="M823.937,493.086
					c0.032-0.129,0.08-0.253,0.148-0.368c0.189-0.321,0.514-0.531,0.844-0.687c-0.081-0.487-0.163-0.981-0.247-1.479"/>
				
					<path fill="none" stroke="#E74C3C" stroke-width="2.75" stroke-linecap="round" stroke-linejoin="round" stroke-dasharray="3.0027,5.0045" d="
					M823.84,485.62c-1.43-8.33-2.996-17.528-3.501-25.265c-0.48-6.323,0.158-14.148,0.55-20.522
					c0.258-4.408,0.26-8.918-0.344-13.298c-0.357-2.627-0.915-5.255-1.759-7.771c-1.145-3.341-3.077-7.539-4.139-10.901
					c-1.557-4.745-2.685-9.91-3.704-14.8c-3.024-15.322-5.502-31.198-6.859-46.826"/>
				<path fill="none" stroke="#E74C3C" stroke-width="2.75" stroke-linecap="round" stroke-linejoin="round" d="M803.877,343.741
					c-0.04-0.499-0.078-0.997-0.115-1.496c-0.337,0.27-0.76,0.406-1.178,0.493c-0.08,0.484-0.162,0.976-0.248,1.476"/>
				
					<path fill="none" stroke="#E74C3C" stroke-width="2.75" stroke-linecap="round" stroke-linejoin="round" stroke-dasharray="2.9864,4.9774" d="
					M801.457,349.112c-2.814,15.018-7.372,34.486-9.906,48.008c-0.738,3.975-2.277,14.342-2.949,18.462
					c-0.722,3.724-1.279,7.816-1.643,11.592c-1.46,14.116,0.14,31.932,0.37,46.164c0.057,5.04,0.048,10.199-0.752,15.207"/>
				<path fill="none" stroke="#E74C3C" stroke-width="2.75" stroke-linecap="round" stroke-linejoin="round" d="M786.116,490.995
					c-0.106,0.488-0.221,0.973-0.346,1.457c0.225,0.058,0.449,0.16,0.599,0.344c0.172,0.209,0.237,0.48,0.267,0.745"/>
				
					<path fill="none" stroke="#E74C3C" stroke-width="2.75" stroke-linecap="round" stroke-linejoin="round" stroke-dasharray="2.9196,4.866" d="
					M786.054,498.364c-0.439,2.463-0.969,5.124-1.194,7.225c-0.118,1.304-0.097,2.633,0.13,3.925
					c0.184,1.069,0.554,2.111,0.974,3.109c0.694,1.611,1.528,3.382,1.884,5.099c0.718,3.424,0.582,6.991,0.059,10.434
					c0.465,1.726,2.74,10.278,3.095,11.826c0.49,2.167,0.93,4.405,0.804,6.636c-0.084,1.403-0.401,2.841-1.198,4.02
					c-0.345,0.511-0.783,0.962-1.289,1.314c-0.519,0.363-1.108,0.62-1.712,0.805c-1.001,0.305-2.061,0.432-3.102,0.511
					c-1.94,0.212-28.035,0.073-30.645,0.099c-1.014-0.028-2.076-0.1-2.986-0.59c-0.614-0.326-1.108-0.841-1.488-1.417
					c-0.458-0.691-0.794-1.463-1.051-2.25c-0.538-1.697-0.776-3.545-0.368-5.296c0.242-1.04,0.716-2.022,1.345-2.882
					c0.602-0.833,1.358-1.555,2.141-2.217c1.181-0.99,2.655-2.104,3.612-3.307c1.394-1.734,2.214-3.854,2.851-5.965
					c0.535-1.859,1.041-4.165,1.99-5.849c0.276-0.502,0.597-0.983,0.96-1.428"/>
				<path fill="none" stroke="#E74C3C" stroke-width="2.75" stroke-linecap="round" stroke-linejoin="round" d="M762.638,520.507
					c0.404-0.296,0.827-0.567,1.257-0.819c0.078-0.479,0.158-0.977,0.234-1.482"/>
				
					<path fill="none" stroke="#E74C3C" stroke-width="2.75" stroke-linecap="round" stroke-linejoin="round" stroke-dasharray="3.4732,5.7887" d="
					M764.666,512.449c0.029-0.999,0.032-2.003,0.023-2.976c-0.052-3.582-0.243-7.28-0.707-10.833
					c-0.064-0.53-0.17-1.144-0.265-1.776"/>
				<path fill="none" stroke="#E74C3C" stroke-width="2.75" stroke-linecap="round" stroke-linejoin="round" d="M763.549,493.979
					c0.077-0.5,0.283-0.97,0.677-1.303c-0.07-0.492-0.14-0.988-0.212-1.485"/>
				
					<path fill="none" stroke="#E74C3C" stroke-width="2.75" stroke-linecap="round" stroke-linejoin="round" stroke-dasharray="2.9222,4.8704" d="
					M763.3,486.373c-0.812-5.287-1.747-10.672-2.899-15.724c-0.553-2.394-3.676-15.647-4.077-17.71
					c-1.004-4.762-1.999-10.506-2.738-15.321c-1.464-9.357-2.775-21.497-3.695-30.974c-0.239-2.773-3.568-25.754-4.009-29.024
					c-0.587-4.687-1.145-9.831-1.36-14.533c-0.218-4.105-0.203-8.671-0.124-13.007"/>
				<path fill="none" stroke="#E74C3C" stroke-width="2.75" stroke-linecap="round" stroke-linejoin="round" d="M744.448,347.645
					c0.012-0.505,0.024-1.005,0.036-1.499c-0.485,0.004-1.012,0.002-1.499-0.112"/>
				
					<path fill="none" stroke="#E74C3C" stroke-width="2.75" stroke-linecap="round" stroke-linejoin="round" stroke-dasharray="2.9392,4.8987" d="
					M741.248,341.896c-0.046-1.453-0.007-2.952-0.008-4.332c0.203-9.915,0.709-20.328,1.763-30.188
					c0.322-3.062,0.927-6.572,1.556-9.878"/>
				<path fill="none" stroke="#E74C3C" stroke-width="2.75" stroke-linecap="round" stroke-linejoin="round" d="M745.025,295.096
					c0.098-0.5,0.196-0.99,0.291-1.469c-0.314-0.1-0.599-0.29-0.8-0.552c-0.106-0.137-0.193-0.286-0.265-0.443"/>
				
					<path fill="none" stroke="#E74C3C" stroke-width="2.75" stroke-linecap="round" stroke-linejoin="round" stroke-dasharray="3.0036,5.0061" d="
					M743.733,287.681c0.017-5.311,0.678-16.61,0.847-21.142c0.456-12.302,0.387-25.256-0.402-37.541
					c-0.243-3.51-0.582-7.313-1.087-10.793c-0.352-2.527-0.871-5.257-1.417-7.907"/>
				<path fill="none" stroke="#E74C3C" stroke-width="2.75" stroke-linecap="round" stroke-linejoin="round" d="M741.159,207.849
					c-0.106-0.496-0.211-0.985-0.314-1.466c-0.305,0.388-0.637,0.776-1.009,1.114"/>
				<path fill="none" stroke="#E74C3C" stroke-width="2.75" stroke-linecap="round" stroke-linejoin="round" d="M736.884,208.557
					c-0.5-0.03-1-0.128-1.482-0.241l-0.325,1.465"/>
				
					<path fill="none" stroke="#E74C3C" stroke-width="2.75" stroke-linecap="round" stroke-linejoin="round" stroke-dasharray="3.0596,5.0993" d="
					M733.973,214.758l-0.185,0.834c-1.819,8.056-5.484,16.367-6.414,24.611c-0.624,5.689,0.211,12.176-0.249,17.876
					c-0.39,5.802-1.519,13.307-1.872,19.111c-0.391,6.055-0.165,12.717,0.119,18.788c0.072,1.252,0.223,2.526,0.666,3.706
					c0.718,1.922,2.054,3.551,3.331,5.129l3.784,4.446c1.55,1.869,3.059,3.885,3.747,6.247c0.399,1.344,0.511,2.762,0.49,4.158
					c-0.01,1.754-0.326,3.872-0.379,5.627c-0.044,1.393,0.139,2.799,0.673,4.093c0.443,1.169,1.144,2.359,1.453,3.575
					c0.102,0.432,0.127,0.907-0.076,1.314c-0.21,0.441-0.655,0.727-1.124,0.828c-0.491,0.108-1.006,0.058-1.492-0.052
					c-0.174-0.041-0.346-0.09-0.516-0.147"/>
				<path fill="none" stroke="#E74C3C" stroke-width="2.75" stroke-linecap="round" stroke-linejoin="round" d="M733.767,333.59
					c-0.353-0.356-0.642-0.774-0.849-1.231c-0.388,0.571-0.859,1.1-1.422,1.503c0.301,0.344,0.659,0.712,1.039,1.083"/>
				
					<path fill="none" stroke="#E74C3C" stroke-width="2.75" stroke-linecap="round" stroke-linejoin="round" stroke-dasharray="3.0425,5.0708" d="
					M736.089,338.543c0.041,0.068,0.08,0.138,0.116,0.209c0.173,0.343,0.276,0.733,0.227,1.118
					c-0.036,0.293-0.154,0.571-0.308,0.821c-0.25,0.404-0.587,0.749-0.945,1.058c-0.989,0.836-2.157,1.445-3.35,1.934
					c-1.24,0.497-2.546,0.867-3.879,0.993c-0.695,0.065-1.401,0.056-2.094-0.034"/>
				<path fill="none" stroke="#E74C3C" stroke-width="2.75" stroke-linecap="round" stroke-linejoin="round" d="M723.42,343.958
					c-0.459-0.199-0.905-0.432-1.332-0.69c-0.341,0.363-0.689,0.721-1.043,1.073"/>
				
					<path fill="none" stroke="#E74C3C" stroke-width="2.75" stroke-linecap="round" stroke-linejoin="round" stroke-dasharray="3.3159,5.5264" d="
					M716.918,348.02c-1.366,1.1-2.78,2.141-4.216,3.128c-2.029,1.378-4.191,2.705-6.4,3.773c-0.664,0.324-1.349,0.627-2.045,0.911"
					/>
				<path fill="none" stroke="#E74C3C" stroke-width="2.75" stroke-linecap="round" stroke-linejoin="round" d="M701.67,356.802
					c-0.475,0.165-0.95,0.323-1.422,0.476l-1.067-1.054"/>
				<path fill="none" stroke="#E74C3C" stroke-width="2.75" stroke-linecap="round" stroke-linejoin="round" d="M698.396,355.448
					l-1.067-1.055c0.239-0.438,0.485-0.872,0.737-1.303"/>
				
					<path fill="none" stroke="#E74C3C" stroke-width="2.75" stroke-linecap="round" stroke-linejoin="round" stroke-dasharray="3.2766,5.4609" d="
					M701.062,348.526c1.69-2.31,3.562-4.489,5.581-6.5c1.456-1.444,3.032-2.782,4.684-4.016"/>
				<path fill="none" stroke="#E74C3C" stroke-width="2.75" stroke-linecap="round" stroke-linejoin="round" d="M713.56,336.432
					c0.416-0.278,0.834-0.549,1.256-0.814c-0.263-0.424-0.516-0.855-0.758-1.293"/>
				
					<path fill="none" stroke="#E74C3C" stroke-width="2.75" stroke-linecap="round" stroke-linejoin="round" stroke-dasharray="3.0595,5.0991" d="
					M711.974,329.674c-0.043-0.123-0.085-0.246-0.126-0.369c-0.85-2.538-1.378-5.216-1.732-7.866
					c-0.332-2.5-0.523-5.218-0.644-7.739c-0.376-8.613-0.479-20.511-1.496-29.02c-0.441-3.588-1.621-12.531-1.882-15.961
					c-0.391-4.509-0.587-9.63-0.673-14.169c-0.139-9.638,0.183-19.648,1.396-29.214c0.967-7.6,2.503-15.278,4.534-22.712"/>
				<path fill="none" stroke="#E74C3C" stroke-width="2.75" stroke-linecap="round" stroke-linejoin="round" d="M712.043,200.168
					c0.14-0.481,0.281-0.96,0.425-1.438c-0.361-0.343-0.696-0.726-0.954-1.154"/>
				
					<path fill="none" stroke="#E74C3C" stroke-width="2.75" stroke-linecap="round" stroke-linejoin="round" stroke-dasharray="2.9799,4.9666" d="
					M711.367,192.745c0.038-0.157,0.077-0.312,0.099-0.393l4.897-18.363c2.249-8.097,4.633-17.554,7.865-25.271
					c1.751-4.177,4.07-8.175,7.167-11.501c4.828-5.203,10.945-9.128,16.866-12.968c5.493-3.474,11.286-7.015,17.146-9.829
					c2.851-1.38,6.048-2.579,9.027-3.662c1.678-2.007,3.906-3.841,4.814-6.364c0.724-2.06,0.647-4.302,0.483-6.448
					c-0.101-1.126-0.265-2.702-0.406-3.821c-0.08-0.576-0.173-1.174-0.324-1.735c-0.155-0.563-0.365-1.138-0.765-1.576
					c-0.31-0.339-0.741-0.535-1.17-0.679c-0.71-0.232-1.52-0.409-2.148-0.828c-0.893-0.582-1.553-1.454-2.112-2.347
					c-0.869-1.427-1.552-2.981-2.138-4.543c-0.488-1.356-0.909-2.77-1.041-4.211"/>
				<path fill="none" stroke="#E74C3C" stroke-width="2.75" stroke-linecap="round" stroke-linejoin="round" d="M769.79,75.738
					c0.138-0.481,0.354-0.936,0.673-1.33c-0.199-0.46-0.385-0.925-0.559-1.394"/>
				
					<path fill="none" stroke="#E74C3C" stroke-width="2.75" stroke-linecap="round" stroke-linejoin="round" stroke-dasharray="2.9792,4.9653" d="
					M768.548,68.242c-0.691-3.313-0.95-6.73-1.041-10.094c-0.031-2.512-0.001-5.196,1.263-7.442
					c0.548-0.975,1.359-1.779,2.262-2.429c1.265-0.915,2.717-1.606,4.135-2.251c1.498-0.664,4.799-2.062,6.207-2.796
					c1.515-0.749,5.043-2.776,6.564-3.623c2.355-1.27,4.821-2.543,7.503-2.907c1.821-0.244,3.697-0.047,5.436,0.543
					c1.451,0.482,2.795,1.255,4.018,2.167l2.29,1.741c1.007,0.744,2.08,1.43,3.246,1.894c1.646,0.658,3.647,0.98,5.351,1.461
					c1.251,0.36,2.559,0.817,3.47,1.79c0.592,0.64,0.959,1.456,1.208,2.284c0.399,1.295,0.536,2.949,0.731,4.292
					c0.145,1.055,0.538,2.388,0.82,3.421c0.448,1.7,0.672,3.499,0.842,5.247c0.235,2.622,0.33,5.327,0.17,7.956
					c0.551,3.198,2.009,10.048,2.24,13.185c0.202,2.396,0.147,4.841-0.35,7.198c-0.705,3.31-2.145,6.441-3.69,9.435
					c-1.157,2.202-2.968,5.344-3.846,7.633c-0.355,0.859-0.675,1.846-1.072,2.767"/>
			</g>
		</g>
	</g>
</g>
<g id="_x32_D_x24_AG-SPORTS">
	<g id="POLYLINE_713_">
		
			<path fill="none" stroke="#E74C3C" stroke-width="2.25" stroke-linecap="round" stroke-linejoin="round" stroke-miterlimit="10" d="
			M458.43,86.388c-2.187-6.34-3.013-13.146-2.471-19.828c0.166-2.01,0.455-4.041,0.931-6.002c0.328-1.328,0.743-2.661,1.33-3.898
			c0.492-1.041,1.126-2.019,1.897-2.875c1.063-1.185,2.362-2.152,3.689-3.021c4.634-2.96,9.855-5.023,15.253-6.06
			c2.543-0.498,5.277-0.814,7.856-1.08c1.929-0.191,3.986-0.401,5.924-0.326c1.575,0.06,3.176,0.298,4.619,0.958
			c1.456,0.666,2.693,1.732,3.839,2.833c0.942,0.914,2.141,2.177,3.183,2.955l1.323,0.985c0.532,0.407,1.051,0.856,1.422,1.42
			c0.425,0.64,0.67,1.384,0.831,2.13c0.4,2.02,0.446,4.181,0.414,6.237c-0.081,2.795-0.41,5.635-1.354,8.281"/>
	</g>
	<g id="POLYLINE_712_">
		
			<path fill="none" stroke="#E74C3C" stroke-width="2.25" stroke-linecap="round" stroke-linejoin="round" stroke-miterlimit="10" d="
			M461.811,100.435c1.108,6.137,1.486,12.474,0.99,18.694"/>
	</g>
	<g id="POLYLINE_711_">
		
			<path fill="none" stroke="#E74C3C" stroke-width="2.25" stroke-linecap="round" stroke-linejoin="round" stroke-miterlimit="10" d="
			M463.02,113.984c-1.904,0.631-3.879,1.504-5.071,3.191c-0.686,0.971-1.08,2.117-1.364,3.263c-0.579,2.443-0.744,5.14-0.976,7.638
			c-0.064,0.966-0.106,1.96,0.018,2.923c0.08,0.621,0.232,1.242,0.518,1.802c0.308,0.61,0.784,1.125,1.335,1.525
			c0.684,0.497,1.471,0.84,2.272,1.102c1.304,0.421,2.69,0.644,4.049,0.802c4.005,0.453,9.867,0.419,13.904,0.709
			c2.895,0.157,6.474,0.786,9.371,0.973c0.908,0.047,1.839,0.051,2.741-0.074c0.91-0.125,1.82-0.394,2.585-0.913
			c0.667-0.447,1.198-1.082,1.563-1.794"/>
	</g>
	<g id="POLYLINE_710_">
		
			<path fill="none" stroke="#E74C3C" stroke-width="2.25" stroke-linecap="round" stroke-linejoin="round" stroke-miterlimit="10" d="
			M445.273,187.036c4.81,5.956,10.322,11.424,16.148,16.385c3.121,2.611,6.356,5.317,9.852,7.409
			c0.453,0.259,0.926,0.512,1.41,0.705c0.387,0.153,0.799,0.264,1.218,0.261c0.585-0.001,1.145-0.216,1.668-0.46
			c2.22-1.094,4.308-2.716,6.306-4.172c3.798-2.966,10.996-8.332,14.582-11.379c0.803-0.69,1.692-1.453,2.431-2.207
			c0.328-0.337,0.658-0.686,0.919-1.078c0.203-0.303,0.357-0.649,0.382-1.016c0.028-0.363-0.057-0.725-0.176-1.066
			c-0.237-0.666-0.602-1.29-0.974-1.888c-1.595-2.531-3.737-4.895-5.151-7.538c-0.327-0.649-0.637-1.342-0.67-2.079
			c-0.019-0.418,0.114-0.839,0.373-1.169c0.225-0.294,0.524-0.526,0.836-0.72c0.524-0.323,1.11-0.559,1.685-0.775
			c1.912-0.704,3.985-1.118,6.022-0.847c1.941,0.254,3.719,1.21,5.256,2.387c2.378,1.835,4.307,4.201,6.023,6.649
			c1.189,1.715,2.33,3.557,3.312,5.397c0.588,1.086,1.057,2.139,1.425,3.325"/>
	</g>
	<g id="POLYLINE_709_">
		
			<path fill="none" stroke="#E74C3C" stroke-width="2.25" stroke-linecap="round" stroke-linejoin="round" stroke-miterlimit="10" d="
			M530.021,216.977c8.113,0.561,16.68,1.1,24.788,0.647c2.59-0.167,5.233-0.421,7.75-1.071c1.303-0.348,2.612-0.808,3.715-1.603
			c0.513-0.371,0.971-0.826,1.327-1.351c0.373-0.545,0.634-1.162,0.824-1.792c0.391-1.344,0.616-2.75,0.708-4.146
			c0.176-2.78-0.279-5.602-1.319-8.185c-0.689-1.72-1.621-3.368-2.601-4.938c-1.811-2.901-4.175-6.04-6.242-8.782"/>
	</g>
	<g id="POLYLINE_708_">
		
			<path fill="none" stroke="#E74C3C" stroke-width="2.25" stroke-linecap="round" stroke-linejoin="round" stroke-miterlimit="10" d="
			M499.786,192.535c1.132,0.992,2.648,2.026,3.828,2.969c0.673,0.524,1.48,1.312,2.109,1.899c0.641,0.579,1.366,1.162,2.248,1.286
			c0.518,0.074,1.044-0.034,1.534-0.203c0.961-0.34,1.846-0.894,2.701-1.442l3.675-2.483c3.635-2.454,7.782-4.079,11.93-5.44
			c1.161-0.389,4.395-1.355,5.474-1.799c0.255-0.109,0.509-0.233,0.736-0.395c0.357-0.247,0.621-0.614,0.75-1.028
			c0.144-0.445,0.174-0.92,0.188-1.384c0.036-1.957-0.21-4.045,0.304-5.958c0.222-0.842,0.659-1.622,1.252-2.259
			c1.051-1.133,2.46-1.859,3.866-2.455c1.918-0.778,3.919-1.473,5.951-1.879c1.188-0.225,2.422-0.356,3.623-0.16
			c0.735,0.118,1.445,0.396,2.057,0.822c0.781,0.538,1.409,1.273,1.955,2.042c0.972,1.396,1.783,2.924,2.522,4.454
			c0.762,1.606,1.459,3.284,2.004,4.975c0.369,1.171,0.706,2.383,0.826,3.608c0.057,0.624,0.047,1.265-0.117,1.872
			c-0.124,0.464-0.345,0.902-0.644,1.278c-0.437,0.554-1.023,0.971-1.625,1.329c-1.929,1.124-4.477,1.95-6.474,2.948
			c-1.145,0.556-2.234,1.26-3.124,2.177c-1.4,1.431-2.593,3.483-3.753,5.114c-2.724,3.834-5.849,7.488-9.218,10.769
			c-1.856,1.789-3.85,3.52-5.98,4.975c-1.696,1.158-3.541,2.154-5.425,2.969c-1.404,0.614-2.93,1.155-4.386,1.634
			c-1.3,0.385-9.077,2.933-10.281,3.265c-2.142,0.618-4.363,1.17-6.605,1.179c-2.683,0.02-5.255-0.99-7.554-2.307
			c-2.61-1.492-5.058-3.385-7.381-5.287c-3.372-2.803-6.661-5.907-9.626-9.138"/>
	</g>
	<g id="POLYLINE_707_">
		
			<path fill="none" stroke="#E74C3C" stroke-width="2.25" stroke-linecap="round" stroke-linejoin="round" stroke-miterlimit="10" d="
			M535.121,179.176c-3.495-4.726-4.543-10.738-4.738-16.493c-0.133-4.547-0.028-9.206,0.387-13.737
			c0.545-5.574,1.649-11.32,4.758-16.078c0.914-1.374,2.004-2.674,3.381-3.604c0.93-0.629,2.003-1.05,3.115-1.204
			c0.803-0.116,1.628-0.104,2.434-0.027c0.829,0.079,1.661,0.248,2.427,0.581c0.909,0.39,1.706,1.019,2.332,1.783
			c0.965,1.174,1.567,2.602,2.036,4.035c0.813,2.545,1.238,5.227,1.53,7.877c0.531,5.263,0.609,10.66,0.11,15.927
			c-0.457,4.612-1.4,9.243-3.203,13.527"/>
	</g>
	<g id="POLYLINE_706_">
		
			<path fill="none" stroke="#E74C3C" stroke-width="2.25" stroke-linecap="round" stroke-linejoin="round" stroke-miterlimit="10" d="
			M536.344,176.49c-1.625-3.451-2.315-7.275-2.583-11.058c-0.258-3.995-0.177-8.176,0.018-12.174
			c0.411-6.682,1.256-13.703,4.927-19.464c1.213-1.856,2.765-3.635,4.86-4.49c1.152-0.475,2.42-0.608,3.657-0.531"/>
	</g>
	<g id="POLYLINE_705_">
		
			<path fill="none" stroke="#E74C3C" stroke-width="2.25" stroke-linecap="round" stroke-linejoin="round" stroke-miterlimit="10" d="
			M513.199,132.73c2.936,1.567,5.762,3.429,8.274,5.618c3.532,3.086,6.714,6.65,9.301,10.565"/>
	</g>
	<g id="POLYLINE_704_">
		
			<path fill="none" stroke="#E74C3C" stroke-width="2.25" stroke-linecap="round" stroke-linejoin="round" stroke-miterlimit="10" d="
			M455.578,130.519c-4.859,3.532-9.349,7.771-12.381,13.005c-1.759,2.997-3.028,6.282-3.958,9.625
			c-1.275,4.628-1.939,9.465-2.053,14.262c-0.072,3.049,0.118,6.173,0.539,9.193c0.577,4.633,3.106,15.078,4.093,19.749
			c1.961,9.488,3.185,19.609,4.121,29.256c1.29,13.857,2.032,28.257,2.042,42.174c-0.001,4.573-0.172,10.935-0.375,15.512
			c-0.196,4.183-0.885,15.445-0.918,19.461c-0.001,1.234,0,2.523,0.174,3.745c0.107,0.711,0.319,1.458,0.867,1.957
			c0.66,0.599,1.579,0.804,2.433,0.958c2.682,0.407,5.511,0.242,8.214,0.145c19.436-1.303,39.814-1.918,59.241-0.774
			c4.293,0.214,10.899,1.089,15.178,1.054c0.905-0.022,1.825-0.088,2.707-0.302c0.782-0.188,1.55-0.525,2.124-1.101
			c0.869-0.862,1.225-2.09,1.446-3.262c0.377-2.107,0.425-4.328,0.469-6.466c-0.017-6.876,0.004-16.156,0.475-22.947
			c0.143-2.136,2.336-32.367,2.305-33.268c0.361-6.471,0.567-18.214,0.691-24.795"/>
	</g>
	<g id="POLYLINE_703_">
		
			<path fill="none" stroke="#E74C3C" stroke-width="2.25" stroke-linecap="round" stroke-linejoin="round" stroke-miterlimit="10" d="
			M456.526,546.426c0.01,1.401,0.048,2.834,0.394,4.198c0.182,0.69,0.47,1.387,0.999,1.884c0.843,0.789,2.068,0.835,3.16,0.863
			c5.224-0.124,68.746,0.338,71.962-0.357c1.63-0.187,3.317-0.403,4.808-1.128c0.471-0.235,0.915-0.534,1.283-0.911
			c0.336-0.343,0.603-0.752,0.793-1.192c0.287-0.663,0.413-1.387,0.488-2.102c0.117-1.165,0.117-2.357,0.034-3.524
			c-0.11-1.46-0.343-2.933-0.803-4.326c-0.399-1.217-1.031-2.388-1.997-3.247c-1.028-0.928-2.332-1.485-3.648-1.874
			c-3.095-0.887-7.806-1.357-11.028-1.857c-1.355-0.211-2.747-0.456-4.051-0.883c-1.483-0.475-2.923-1.144-4.302-1.866
			c-4.815-2.574-9.522-5.891-13.999-9.016"/>
	</g>
	<g id="POLYLINE_702_">
		
			<path fill="none" stroke="#E74C3C" stroke-width="2.25" stroke-linecap="round" stroke-linejoin="round" stroke-miterlimit="10" d="
			M450.668,309.492c-0.885,12.11-1.322,25.229-1.31,37.366c-0.088,14.004,1.193,42.536,1.704,56.844
			c0.195,7.893,0.236,17.314,0.009,25.194c-0.106,7.282-1.866,32.798-2.324,40.474c-0.219,4.699-0.352,9.714-0.185,14.414
			c0.124,3.426,0.439,7.154,0.829,10.561c0.678,5.54,1.893,14.074,2.231,19.532c0.305,3.692,0.521,15.406,0.638,19.308
			c0.139,3.073,0.191,6.268,0.989,9.254c0.311,1.086,0.762,2.184,1.589,2.98c0.563,0.548,1.287,0.899,2.034,1.121
			c0.836,0.251,1.709,0.396,2.58,0.445c2.385,0.135,4.769-0.464,6.92-1.472c2.225-1.04,4.259-2.538,6.208-4.019l7.638-6.034
			c4.425-3.448,10.596-7.22,15.356-10.28c1.486-0.996,3.045-2.013,4.323-3.27c0.58-0.58,1.106-1.243,1.4-2.017
			c0.42-1.082,0.318-2.276,0.159-3.401c-0.462-2.891-1.376-6.661-1.757-9.555c-0.572-3.913-0.766-7.99-0.716-11.944
			c0.076-6.271,0.738-12.876,1.508-19.108c1.319-10.315,3.184-21.416,5.189-31.622l6.424-29.843
			c1.308-6.603,2.414-13.655,3.208-20.342c1.943-16.288,3.929-46.893,5.208-63.541"/>
	</g>
	<g id="POLYLINE_701_">
		
			<path fill="none" stroke="#E74C3C" stroke-width="2.25" stroke-linecap="round" stroke-linejoin="round" stroke-miterlimit="10" d="
			M510.078,527.463c-0.493-7.373-0.516-15.085-0.226-22.468c0.304-7.448,0.932-15.106,2.143-22.458
			c2.095-12.753,6.991-26.96,9.528-39.639c4.181-20.923,5.996-45.451,10.176-66.375c2.24-11.811,7.195-32.002,7.658-43.886
			c0.425-8.045-0.6-16.216-1.764-24.166"/>
	</g>
	<g id="POLYLINE_700_">
		
			<path fill="none" stroke="#E74C3C" stroke-width="2.25" stroke-linecap="round" stroke-linejoin="round" stroke-miterlimit="10" d="
			M509.78,521.598c8.428,4.177,17.624,6.956,26.697,9.358c2.833,0.753,8.685,2.045,11.526,2.83c0.708,0.205,1.446,0.439,2.129,0.715
			c1.526,0.61,2.967,1.522,4.014,2.804c0.671,0.816,1.17,1.774,1.466,2.788c0.368,1.255,0.452,2.583,0.373,3.884
			c-0.122,1.683-0.452,3.4-1.145,4.945c-0.37,0.804-0.886,1.548-1.553,2.134c-0.861,0.761-1.928,1.256-3.021,1.586
			c-0.958,0.286-1.959,0.463-2.955,0.551c-2.955,0.266-20.425,0.128-23.728,0.179"/>
	</g>
	<g id="POLYLINE_699_">
		
			<path fill="none" stroke="#E74C3C" stroke-width="2.25" stroke-linecap="round" stroke-linejoin="round" stroke-miterlimit="10" d="
			M463.31,100.359c-0.741,0.058-1.536,0.172-2.26-0.049c-0.446-0.129-0.84-0.399-1.151-0.741c-0.397-0.43-0.699-0.944-0.954-1.468
			c-0.402-0.835-0.693-1.735-0.925-2.631c-0.289-1.135-0.489-2.312-0.597-3.478c-0.085-0.965-0.11-1.953,0.005-2.916
			c0.108-0.861,0.321-1.743,0.827-2.463c0.382-0.545,0.967-0.952,1.622-1.086c0.678-0.146,1.407,0.033,1.935,0.484
			c0.644,0.556,1.019,1.353,1.375,2.11c0.286,0.614,0.662,1.616,1.038,2.169c0.077,0.108,0.162,0.214,0.271,0.29l0.009,0.006
			l0.009,0.006l0.009,0.006l0.009,0.005l0.009,0.005l0.009,0.005c0.292,0.157,0.576-0.092,0.741-0.319
			c0.216-0.296,0.352-0.645,0.453-0.995c0.196-0.7,0.229-1.439,0.237-2.163c0-2.043-0.234-4.253,0.051-6.283
			c0.243-2.098,1.405-4.276,2.272-6.18c0.515-1.155,0.988-2.368,1.077-3.641c0.066-0.936-0.108-1.874-0.325-2.781
			c-0.198-0.852-0.643-2.311-0.715-3.189c-0.053-0.521-0.041-1.06,0.126-1.56c0.216-0.654,0.7-1.183,1.238-1.596
			c0.822-0.626,1.784-1.052,2.745-1.416c2.106-0.786,4.466-1.281,6.662-1.77c5.235-1.109,10.62-2.24,15.996-2.058
			c2.987,0.124,6.245,0.674,8.454,2.854c0.854,0.85,1.482,1.907,1.96,3.007c0.692,1.603,1.096,3.332,1.379,5.051
			c0.532,3.307,0.638,6.738,0.609,10.085c-0.063,3.11-0.163,11.948-0.34,14.926c-0.174,3.231-0.434,6.585-1.065,9.761
			c-0.345,1.716-0.812,3.43-1.55,5.022c-0.737,1.599-1.782,3.079-3.152,4.196c-1.414,1.166-3.131,1.92-4.892,2.388
			c-2.449,0.648-5.023,0.807-7.546,0.656c-3.116-0.198-6.24-0.901-9.048-2.289c-3.956-1.927-7.112-5.261-9.203-9.1"/>
	</g>
	<g id="POLYLINE_698_">
		
			<path fill="none" stroke="#E74C3C" stroke-width="2.25" stroke-linecap="round" stroke-linejoin="round" stroke-miterlimit="10" d="
			M462.801,119.128c0.122,0.505,0.17,1.052,0.53,1.458c0.225,0.261,0.524,0.449,0.825,0.612c0.736,0.388,1.554,0.656,2.344,0.913
			c2.638,0.782,5.582,1.704,8.064,2.847c5.526,2.456,14.831,7.856,20.283,10.624c0.663,0.314,1.363,0.729,2.084,0.881
			c0.338,0.068,0.685,0.023,0.973-0.174c0.36-0.245,0.616-0.614,0.843-0.979c0.515-0.862,0.875-1.819,1.194-2.768
			c0.772-2.349,1.229-4.82,1.408-7.285c0.26-4.457,0.591-9.75,0.632-14.208"/>
	</g>
	<g id="POLYLINE_697_">
		
			<path fill="none" stroke="#E74C3C" stroke-width="2.25" stroke-linecap="round" stroke-linejoin="round" stroke-miterlimit="10" d="
			M498.685,135.414l2.386-0.113c1.233-0.04,2.491-0.007,3.702,0.246c1.226,0.25,2.524,0.791,3.735,1.101
			c0.725,0.18,1.499,0.309,2.236,0.123c1.12-0.289,1.891-1.316,2.232-2.377c0.253-0.785,0.295-1.637,0.123-2.444
			c-0.171-0.803-0.553-1.547-1.008-2.224c-1.071-1.569-2.52-2.864-3.968-4.078c-0.846-0.667-3.999-3.25-4.804-3.84
			c-0.535-0.388-1.113-0.731-1.713-1.009"/>
	</g>
</g>
<g id="_x32_D_x24_AG-OUTLINE">
	<g id="POLYLINE_22_">
		
			<path fill="none" stroke="#E74C3C" stroke-width="2.95" stroke-linecap="round" stroke-linejoin="round" stroke-miterlimit="10" d="
			M530.774,148.913c0.457-4.658,1.298-9.389,3.377-13.621c0.832-1.683,1.847-3.307,3.153-4.665c0.83-0.86,1.803-1.606,2.911-2.07
			c0.984-0.417,2.06-0.592,3.125-0.584c1.064,0.015,2.149,0.129,3.157,0.486c0.695,0.247,1.347,0.621,1.906,1.103
			c1.458,1.255,2.264,3.077,2.852,4.869c1.363,4.37,1.731,9.032,1.92,13.585c0.243,8.01-0.376,16.278-3.483,23.746
			c0.718,0.086,1.425,0.307,2.046,0.683c0.743,0.445,1.359,1.077,1.888,1.756c1.209,1.597,2.147,3.422,3.01,5.224
			c0.941,2.031,1.789,4.157,2.335,6.33c2.195,2.916,4.647,6.163,6.54,9.262c0.963,1.58,1.866,3.24,2.504,4.98
			c1.126,3.041,1.428,6.377,0.906,9.576c-0.223,1.272-0.471,2.588-1.125,3.719c-0.441,0.763-1.088,1.394-1.828,1.867
			c-0.783,0.505-1.661,0.861-2.546,1.144c-1.403,0.442-2.881,0.712-4.336,0.915c-5.259,0.691-10.773,0.618-16.072,0.481
			c-0.126,6.638-0.329,18.283-0.691,24.795c0.038,0.798-2.171,31.263-2.305,33.268c-0.471,6.766-0.492,16.099-0.475,22.947
			c-0.044,2.145-0.093,4.372-0.473,6.486c-0.224,1.18-0.588,2.417-1.476,3.275c1.163,7.957,2.189,16.118,1.764,24.166
			c-0.45,11.79-5.419,32.093-7.658,43.886c-3.923,19.692-5.883,43.273-9.519,63.027c-2.347,13.202-7.369,27.726-9.822,40.902
			c-1.229,6.774-1.936,13.836-2.323,20.707c-0.347,6.644-0.497,13.791-0.254,20.438c4.339,2.184,9.032,3.962,13.634,5.516
			c7.168,2.431,15.349,4.474,22.751,6.186c1.779,0.454,3.616,0.921,5.241,1.797c1.46,0.782,2.75,1.934,3.545,3.399
			c0.633,1.144,0.947,2.444,1.034,3.743c0.112,1.715-0.115,3.45-0.571,5.104c-0.248,0.878-0.584,1.747-1.087,2.512
			c-0.397,0.608-0.907,1.143-1.495,1.568c-0.959,0.696-2.092,1.124-3.237,1.402c-1.932,0.492-4.108,0.458-6.095,0.503
			c-11.062,0.005-70.679,0.088-83.024,0.023c-0.483-0.028-0.975-0.079-1.44-0.219c-0.47-0.139-0.912-0.388-1.244-0.751
			c-0.472-0.51-0.726-1.18-0.895-1.845c-0.323-1.338-0.363-2.739-0.372-4.109c-0.664-0.234-1.292-0.593-1.783-1.102
			c-0.645-0.66-1.05-1.515-1.34-2.382c-0.366-1.107-0.568-2.282-0.719-3.437c-0.257-2.04-0.348-4.263-0.425-6.321
			c-0.118-3.947-0.33-15.526-0.638-19.308c-0.336-5.44-1.561-14.058-2.231-19.532c-0.39-3.408-0.704-7.134-0.829-10.561
			c-0.167-4.699-0.034-9.716,0.185-14.414c0.469-7.85,2.212-33.071,2.324-40.474c0.227-7.876,0.187-17.308-0.009-25.194
			c-0.517-14.484-1.788-42.719-1.704-56.844c-0.012-12.135,0.425-25.259,1.31-37.366c-0.706-0.095-1.422-0.224-2.082-0.499
			c-0.449-0.187-0.871-0.47-1.155-0.871c-0.425-0.598-0.545-1.348-0.627-2.061c-0.135-1.313-0.126-2.702-0.108-4.022
			c0.28-8.85,1.175-21.052,1.251-29.881c0.171-13.823-0.46-28.139-1.596-41.915c-0.974-11.21-2.269-22.864-4.534-33.89
			c-1.009-4.752-3.508-15.099-4.093-19.749c-0.421-3.021-0.611-6.144-0.539-9.193c0.113-4.797,0.777-9.634,2.052-14.262
			c0.93-3.343,2.199-6.628,3.958-9.625c3.032-5.234,7.522-9.474,12.381-13.005c-0.128-1.956,0.215-4.294,0.389-6.251
			c0.26-2.202,0.536-4.5,1.598-6.481c0.457-0.84,1.122-1.559,1.897-2.116c1.068-0.773,2.316-1.27,3.559-1.687
			c0.013-4.515-0.405-9.107-1.208-13.549c-0.366-0.018-0.735-0.087-1.07-0.24c-0.308-0.138-0.58-0.348-0.812-0.592
			c-0.387-0.408-0.683-0.898-0.935-1.398c-0.39-0.784-0.676-1.629-0.907-2.473c-0.523-2.014-0.838-4.12-0.705-6.204
			c0.092-1.102,0.315-2.273,1.047-3.14c-2.187-6.34-3.013-13.146-2.471-19.828c0.166-2.01,0.455-4.041,0.931-6.002
			c0.328-1.328,0.743-2.661,1.33-3.898c0.492-1.041,1.126-2.019,1.897-2.875c1.063-1.185,2.362-2.152,3.689-3.021
			c4.634-2.96,9.855-5.023,15.253-6.06c2.543-0.498,5.277-0.814,7.856-1.08c1.929-0.191,3.986-0.401,5.924-0.326
			c1.575,0.06,3.176,0.298,4.619,0.958c1.456,0.666,2.693,1.732,3.839,2.833c0.942,0.914,2.141,2.177,3.183,2.955l1.323,0.985
			c0.532,0.407,1.051,0.856,1.422,1.42c0.425,0.64,0.67,1.384,0.831,2.13c0.4,2.02,0.446,4.181,0.414,6.237
			c-0.081,2.795-0.41,5.635-1.354,8.281c0.28,2.3,0.389,4.689,0.397,7.006c-0.051,4.732-0.134,13.29-0.425,17.944
			c-0.203,3.065-0.499,6.226-1.181,9.223c-0.651,2.849-1.765,5.732-3.925,7.781c-0.014,2.872-0.214,6.855-0.377,9.75
			c0.6,0.278,1.178,0.621,1.713,1.009c0.893,0.662,3.937,3.139,4.804,3.84c1.383,1.158,2.762,2.393,3.819,3.863
			c0.675,0.944,1.215,2.04,1.257,3.218c2.936,1.567,5.762,3.429,8.274,5.618C525.004,141.434,528.186,144.998,530.774,148.913z"/>
	</g>
</g>
</svg>
